<svg version="1.1" id="Layer_1" xmlns="http://www.w3.org/2000/svg" xmlns:xlink="http://www.w3.org/1999/xlink" x="0px" y="0px"
	 width="100%" viewBox="0 0 532 469" enable-background="new 0 0 532 469" xml:space="preserve">
<path fill="#000000" opacity="1.000000" stroke="none" 
	d="
M533.000000,174.000000 
	C533.000000,272.999969 533.000000,371.499969 533.000000,469.999939 
	C355.666718,469.999969 178.333466,469.999969 1.000148,470.000000 
	C1.000099,313.666779 1.000099,157.333542 1.000049,1.000232 
	C178.333191,1.000155 355.666382,1.000155 532.999756,1.000077 
	C533.000000,58.500000 533.000000,116.000000 533.000000,174.000000 
M141.018448,351.941589 
	C141.065643,360.295929 141.112854,368.650299 141.022690,377.932404 
	C141.009201,401.544159 140.975647,425.155945 141.030899,448.767517 
	C141.034302,450.221313 141.738434,451.673431 142.037415,453.863739 
	C142.158508,454.811371 142.279602,455.758972 142.481064,457.335510 
	C148.575699,453.926331 154.316559,450.848602 159.928528,447.551483 
	C178.815552,436.455048 197.667831,425.299316 216.512085,414.130280 
	C233.372040,404.137360 250.203812,394.096893 267.662811,383.730042 
	C268.831085,383.828857 270.199524,383.564728 271.137054,384.081879 
	C282.192383,390.179962 293.233612,396.307373 304.179291,402.599640 
	C320.792084,412.149719 337.265778,421.942657 353.913361,431.431030 
	C367.843536,439.370605 381.938171,447.021729 396.345856,454.912994 
	C396.345856,454.912994 396.746674,454.883636 397.148895,455.581696 
	C397.423737,455.108948 397.938995,454.636108 397.938843,454.163483 
	C397.932098,433.763855 397.879608,413.364227 397.945221,392.038086 
	C397.909821,381.685974 397.874451,371.333893 397.963470,360.054138 
	C397.923279,346.649353 397.883057,333.244598 398.009003,319.006653 
	C397.623383,315.778961 397.237762,312.551300 397.353699,308.991882 
	C397.552429,308.987579 397.751160,308.983307 398.239899,309.625397 
	C404.984314,313.391449 411.748596,317.122467 418.469208,320.930603 
	C434.033569,329.749847 449.583832,338.593933 465.126282,347.451752 
	C476.829803,354.121765 488.474518,360.896088 500.217773,367.495117 
	C507.763885,371.735596 515.441284,375.742462 523.406067,380.449219 
	C524.250061,378.853973 525.834473,377.252655 525.821411,375.664459 
	C525.714233,362.586212 525.290283,349.510803 525.006470,336.433594 
	C524.894714,331.284912 524.895142,326.133820 524.957397,320.054077 
	C524.912964,312.361694 524.868530,304.669281 524.935303,296.048492 
	C524.902954,285.689331 524.870605,275.330170 524.957642,264.044159 
	C524.893066,253.676331 524.828430,243.308502 524.961182,232.031982 
	C524.919434,222.684189 524.877686,213.336395 524.971985,203.061264 
	C524.930786,194.043655 524.889648,185.026031 524.989258,175.079437 
	C524.992859,158.823471 525.023804,142.567383 524.953491,126.311729 
	C524.947144,124.843216 524.287354,123.377525 523.990906,121.548004 
	C523.990906,121.548004 523.863220,121.203461 523.953613,120.224823 
	C523.986389,110.289505 524.065247,100.353882 524.000183,90.419205 
	C523.990906,88.999413 523.284973,87.584190 522.296509,85.813919 
	C516.142578,82.192841 510.025208,78.507668 503.826599,74.964767 
	C492.813843,68.670334 481.715607,62.525139 470.720154,56.200954 
	C458.606934,49.233894 446.593689,42.093273 434.491669,35.106529 
	C422.950226,28.443428 411.412323,21.768116 399.717682,15.382378 
	C397.697235,14.279150 394.392456,13.544431 392.558777,14.438980 
	C385.927124,17.674126 379.653534,21.648876 373.274506,25.394997 
	C356.278198,35.376160 339.312714,45.409790 322.306122,55.373310 
	C304.892242,65.575470 287.444122,75.719177 269.302094,85.995483 
	C268.197510,86.313232 267.092957,86.630981 265.730957,86.277031 
	C261.854248,84.021370 258.005707,81.715630 254.095932,79.518829 
	C238.202560,70.588760 222.247269,61.768089 206.395767,52.764553 
	C184.930756,40.572590 163.540054,28.249815 141.776276,15.295900 
	C140.509430,15.271877 139.242599,15.247854 137.305206,15.333532 
	C135.483734,16.450598 133.685608,17.607975 131.836990,18.678177 
	C120.035652,25.510229 108.208374,32.297581 96.417961,39.148403 
	C79.780418,48.815647 63.146217,58.488983 46.551708,68.229767 
	C36.008461,74.418526 25.539831,80.734406 14.371802,87.032936 
	C13.811917,87.365479 13.252033,87.698029 12.342172,88.110664 
	C12.096410,88.262299 12.028011,88.471832 11.327842,89.183380 
	C11.269986,103.100067 11.212131,117.016754 11.040225,131.826691 
	C11.349503,140.885864 11.630812,149.946198 12.007446,159.002579 
	C12.049224,160.007172 12.634640,160.989151 13.059333,162.917542 
	C13.021391,177.648438 12.983449,192.379333 12.155871,207.452393 
	C12.161325,217.637131 12.166778,227.821854 12.026461,238.932983 
	C12.071432,250.623047 12.116403,262.313110 12.014768,274.929871 
	C12.061903,288.262787 12.109038,301.595703 12.054472,315.806183 
	C12.430201,325.545441 12.805928,335.284668 13.048203,345.949677 
	C13.022021,357.149750 12.956723,368.350067 13.019616,379.549652 
	C13.027399,380.935486 13.717377,382.317474 14.623904,383.573181 
	C15.097324,383.288025 15.570745,383.002838 16.720543,382.644562 
	C26.162382,377.108795 35.580158,371.531494 45.050621,366.045105 
	C72.765045,349.989624 100.530685,334.022217 128.197067,317.884521 
	C132.662262,315.279968 136.722321,311.980865 141.675583,308.514160 
	C141.769363,306.527618 141.962509,304.540039 141.941971,302.554688 
	C141.655228,274.854584 141.341217,247.154755 141.028198,219.454926 
	C140.985046,215.636383 140.911438,211.818161 140.941666,207.070435 
	C140.897400,202.348267 140.853119,197.626114 140.942337,191.987320 
	C141.007645,182.331604 141.072952,172.675888 141.777878,163.264069 
	C150.829544,168.494995 159.854736,173.772400 168.939117,178.945862 
	C182.395218,186.609039 195.911621,194.166321 209.368988,201.827271 
	C226.987000,211.856857 244.556854,221.971222 262.203156,231.950562 
	C263.548737,232.711502 265.336578,232.690399 267.159943,233.581787 
	C267.799591,233.420441 268.439270,233.259079 269.823914,233.016342 
	C272.898254,231.606384 275.972595,230.196411 279.750488,228.911682 
	C283.082275,227.196106 286.499512,225.626999 289.731628,223.740677 
	C307.657959,213.278488 325.555237,202.766235 343.429108,192.214661 
	C352.097900,187.097153 360.694061,181.856552 369.561676,176.603561 
	C369.561676,176.603561 369.661285,176.376297 370.289703,176.220749 
	C378.198517,171.773087 386.107300,167.325424 394.752899,162.734177 
	C395.020386,162.655167 395.382874,162.432114 395.532990,162.531097 
	C395.755341,162.677734 395.943390,163.051697 395.946075,163.330795 
	C396.031250,172.226852 396.092285,181.123123 396.044800,190.948898 
	C396.086395,199.971558 396.127991,208.994232 396.041260,218.944244 
	C396.083038,232.969131 396.124817,246.994003 396.028137,261.944733 
	C395.949036,277.673889 395.869934,293.403076 395.094116,309.071411 
	C383.590240,315.701965 372.071167,322.306366 360.586212,328.969513 
	C345.541718,337.697845 330.515228,346.457306 315.497711,355.231995 
	C302.452179,362.854431 289.472595,370.591156 276.364288,378.103668 
	C273.448303,379.774841 270.115204,380.718201 266.715851,381.351044 
	C257.411224,376.034424 248.123230,370.688507 238.797638,365.408936 
	C228.206894,359.413147 217.532013,353.564514 206.985092,347.493134 
	C192.637512,339.233826 178.400482,330.782654 164.067230,322.498230 
	C157.873032,318.917999 151.578629,315.508179 145.270630,312.131348 
	C144.394943,311.662537 142.620529,311.356232 142.240021,311.804596 
	C141.519897,312.653107 141.228958,314.110962 141.258209,315.303375 
	C141.338089,318.560577 141.677353,321.811401 141.148270,325.453949 
	C141.147888,333.973907 141.147507,342.493896 141.018448,351.941589 
z"/>
<path fill="#3021BD" opacity="1.000000" stroke="none" 
	d="
M523.863220,121.203461 
	C523.863220,121.203461 523.990906,121.548004 523.937134,121.983696 
	C523.843506,122.585007 523.803711,122.750633 523.539551,123.268814 
	C523.235291,129.681122 523.155334,135.740891 523.044556,142.280975 
	C523.008179,171.065063 522.990356,199.368881 523.032654,227.672592 
	C523.034790,229.101135 523.557007,230.528885 523.932007,232.207886 
	C524.111572,232.616364 524.196167,232.773926 524.148438,233.200241 
	C523.675537,233.670288 523.334900,233.871582 522.727417,233.864029 
	C519.640198,231.786148 516.820007,229.917114 513.861938,227.728424 
	C512.151489,226.599045 510.578827,225.789352 509.003082,224.990219 
	C509.000000,225.000793 509.017090,224.986969 508.873108,224.700470 
	C507.821198,223.938751 506.913330,223.463531 506.002716,222.994156 
	C506.000000,223.000000 506.009766,222.993851 505.849945,222.691452 
	C502.783295,220.936066 499.876495,219.483078 496.655670,217.883484 
	C485.897919,211.836853 475.454193,205.936829 464.952606,199.690201 
	C461.932312,197.890656 458.969849,196.437698 456.004303,194.992691 
	C456.001221,195.000626 456.014984,194.987411 455.952911,194.650452 
	C454.930603,193.868896 453.970398,193.424332 453.005066,192.989883 
	C453.000000,193.000000 453.015289,192.983383 452.856018,192.680023 
	C451.126007,191.591980 449.555267,190.807312 447.634338,189.972916 
	C436.719910,183.889847 426.150269,177.865967 415.594025,171.818680 
	C411.085602,169.235977 406.605194,166.604401 401.967285,163.782593 
	C401.545563,163.374130 401.268585,163.178116 400.995789,162.991058 
	C401.000000,163.000015 401.019775,163.002411 400.791077,162.752197 
	C399.685242,162.337708 398.808044,162.173431 397.740479,162.033829 
	C397.550049,162.058517 397.170166,162.114731 397.124023,161.765442 
	C397.021057,160.949829 396.964203,160.483505 397.199799,159.972321 
	C397.330750,156.629898 397.038086,153.332703 397.029175,150.034760 
	C396.972595,129.035217 396.978546,108.035500 396.978882,86.563782 
	C396.993866,79.135880 396.993866,72.180031 396.993866,65.224174 
	C396.663635,65.222290 396.333374,65.220406 396.003143,65.218521 
	C396.003143,72.479645 396.003143,79.740768 396.002930,87.470428 
	C395.987793,111.611755 395.972931,135.284531 395.755798,159.101654 
	C395.292450,159.478745 395.145874,159.769302 395.103821,160.126648 
	C395.093781,160.135620 395.094086,160.169830 394.838989,160.023788 
	C394.074982,159.590927 393.566071,159.304108 393.048462,159.012085 
	C393.039795,159.006866 393.026459,158.991745 392.850891,158.749298 
	C392.116058,158.328918 391.556793,158.151001 390.995667,157.989288 
	C390.993774,158.005508 391.025818,157.999283 390.916931,157.772842 
	C390.537109,157.356033 390.266144,157.165665 389.995911,156.990479 
	C389.996643,157.005676 390.025909,156.997314 389.840881,156.764282 
	C389.103455,156.345596 388.551086,156.159958 387.996460,155.989288 
	C387.994171,156.004242 388.023895,155.998352 387.911102,155.775833 
	C387.585297,155.284927 387.317230,155.093643 386.995575,154.992218 
	C386.997009,155.004990 387.021973,154.998947 386.811768,154.746826 
	C385.401154,153.988983 384.200775,153.483246 382.998199,152.990448 
	C382.996002,153.003372 383.021729,152.998337 382.838562,152.764221 
	C382.102692,152.344498 381.549957,152.158890 380.997833,151.989563 
	C380.998413,152.005829 381.026764,151.989777 380.860901,151.689850 
	C379.466492,150.865295 378.237976,150.340652 376.844604,149.546066 
	C370.967102,146.005432 365.218964,142.794846 359.549774,139.450424 
	C350.301361,133.994537 341.169159,128.339264 331.870850,122.970879 
	C317.483002,114.664017 303.043365,106.443794 288.529419,98.359688 
	C282.506226,95.004845 276.234833,92.095589 269.961884,88.733795 
	C269.901947,87.618752 269.956482,86.753601 270.010986,85.888458 
	C287.444122,75.719177 304.892242,65.575470 322.306122,55.373310 
	C339.312714,45.409790 356.278198,35.376160 373.274506,25.394997 
	C379.653534,21.648876 385.927124,17.674126 392.558777,14.438980 
	C394.392456,13.544431 397.697235,14.279150 399.717682,15.382378 
	C411.412323,21.768116 422.950226,28.443428 434.491669,35.106529 
	C446.593689,42.093273 458.606934,49.233894 470.720154,56.200954 
	C481.715607,62.525139 492.813843,68.670334 503.826599,74.964767 
	C510.025208,78.507668 516.142578,82.192841 522.467773,86.314026 
	C522.758118,94.542213 522.804749,102.272400 523.027710,109.997498 
	C523.135620,113.737740 523.574280,117.468437 523.863220,121.203461 
M394.987396,24.586395 
	C394.987396,30.636274 394.987396,36.686153 394.987396,42.736034 
	C395.229553,42.729519 395.471710,42.723003 395.713867,42.716488 
	C395.713867,33.895859 395.713867,25.075230 395.713867,16.254601 
	C395.471588,16.253387 395.229340,16.252174 394.987061,16.250959 
	C394.987061,18.708923 394.987061,21.166887 394.987396,24.586395 
z"/>
<path fill="#3B32C7" opacity="1.000000" stroke="none" 
	d="
M270.076324,88.983688 
	C276.234833,92.095589 282.506226,95.004845 288.529419,98.359688 
	C303.043365,106.443794 317.483002,114.664017 331.870850,122.970879 
	C341.169159,128.339264 350.301361,133.994537 359.549774,139.450424 
	C365.218964,142.794846 370.967102,146.005432 376.983459,149.880402 
	C378.533630,150.986389 379.780212,151.488083 381.026764,151.989777 
	C381.026764,151.989777 380.998413,152.005829 381.175110,152.229980 
	C381.908417,152.635544 382.465088,152.816940 383.021729,152.998337 
	C383.021729,152.998337 382.996002,153.003372 383.076477,153.343719 
	C384.445282,154.122345 385.733643,154.560638 387.021973,154.998932 
	C387.021973,154.998947 386.997009,155.004990 387.111023,155.213348 
	C387.432922,155.694901 387.699188,155.887115 388.023895,155.998352 
	C388.023895,155.998352 387.994171,156.004242 388.171509,156.232300 
	C388.907867,156.639328 389.466888,156.818314 390.025909,156.997314 
	C390.025909,156.997314 389.996643,157.005676 390.109131,157.214233 
	C390.489685,157.614960 390.757751,157.807114 391.025818,157.999283 
	C391.025818,157.999283 390.993774,158.005508 391.172638,158.231079 
	C391.909821,158.635010 392.468140,158.813370 393.026459,158.991745 
	C393.026459,158.991745 393.039795,159.006866 392.988525,159.357361 
	C386.071075,164.061707 379.162994,168.352081 372.378601,172.829880 
	C371.204193,173.604996 370.553741,175.173996 369.661285,176.376297 
	C369.661285,176.376297 369.561676,176.603561 369.071960,176.421509 
	C365.588379,177.730209 362.510956,179.075439 359.615204,180.737198 
	C347.714111,187.566727 335.932678,194.606628 323.984039,201.350906 
	C312.004669,208.112534 299.794220,214.467606 287.872040,221.326004 
	C284.586914,223.215820 281.970306,226.267731 279.046936,228.786438 
	C275.972595,230.196411 272.898254,231.606384 269.475494,232.675003 
	C269.127075,222.301773 269.127075,212.269882 269.127075,202.237991 
	C267.994720,210.619553 268.058655,219.004501 267.945740,227.387100 
	C267.920319,229.273270 267.277466,231.151108 266.918854,233.032791 
	C265.336578,232.690399 263.548737,232.711502 262.203156,231.950562 
	C244.556854,221.971222 226.987000,211.856857 209.368988,201.827271 
	C195.911621,194.166321 182.395218,186.609039 168.939117,178.945862 
	C159.854736,173.772400 150.829544,168.494995 141.364960,163.188293 
	C140.952026,163.112518 140.795471,162.975693 140.864288,162.515381 
	C140.941513,143.380157 140.949951,124.705269 140.975647,105.558914 
	C140.995529,102.278908 141.106079,99.465401 140.977386,96.662888 
	C140.738571,91.462112 140.360092,86.267746 140.027710,80.599648 
	C139.690491,68.728310 139.365311,57.328041 139.310699,45.623741 
	C139.722534,37.127148 139.756393,28.930119 140.096909,20.745850 
	C140.164017,19.133055 141.413345,17.569450 142.117462,15.983160 
	C163.540054,28.249815 184.930756,40.572590 206.395767,52.764553 
	C222.247269,61.768089 238.202560,70.588760 254.095932,79.518829 
	C258.005707,81.715630 261.854248,84.021370 265.772125,86.929077 
	C266.205750,90.277824 266.925903,92.972961 266.938751,95.671478 
	C267.040100,116.945168 266.997589,138.219513 267.031708,159.493607 
	C267.034271,161.100784 267.285950,162.707581 267.421814,164.314545 
	C267.943756,164.269989 268.465698,164.225449 268.987640,164.180893 
	C268.987640,162.435898 268.987579,160.690903 268.987671,158.945908 
	C268.988739,137.505569 268.962769,116.065140 269.038025,94.625061 
	C269.044647,92.743408 269.714508,90.864090 270.076324,88.983688 
M245.672729,100.924797 
	C246.680237,100.362320 247.687744,99.799843 248.695251,99.237366 
	C248.410233,98.849762 248.125214,98.462166 247.840179,98.074562 
	C246.891006,99.047287 245.941833,100.020012 244.540237,101.011536 
	C244.284302,101.127922 244.028381,101.244316 243.772461,101.360718 
	C243.852509,101.476967 243.932571,101.593208 244.012634,101.709450 
	C244.343170,101.475037 244.673706,101.240623 245.672729,100.924797 
M239.146896,104.724632 
	C239.049362,104.725334 238.951828,104.726044 239.146896,104.724632 
M241.485779,102.584610 
	C241.485779,102.584610 241.420670,102.477570 241.485779,102.584610 
M250.485794,97.574745 
	C250.485794,97.574745 250.428696,97.477005 250.485794,97.574745 
M252.406845,96.482727 
	C252.406845,96.482727 252.517456,96.418350 252.406845,96.482727 
z"/>
<path fill="#3020BD" opacity="1.000000" stroke="none" 
	d="
M139.040131,45.927773 
	C139.365311,57.328041 139.690491,68.728310 140.022034,81.060028 
	C140.047607,90.008240 140.066833,98.025009 140.070358,106.507507 
	C140.006393,125.614334 139.958130,144.255417 139.863129,162.915863 
	C139.816376,162.935242 139.718887,162.908096 139.362823,162.940979 
	C131.925034,166.855972 124.771187,170.612961 117.776421,174.645889 
	C102.562271,183.417816 87.431450,192.334198 72.262520,201.184601 
	C53.509209,212.126343 34.751793,223.061035 15.664820,233.999084 
	C14.891625,233.999130 14.449758,233.998886 14.002773,233.530151 
	C13.996645,230.248230 14.090247,227.430878 13.974586,224.622147 
	C13.745959,219.070190 13.401566,213.522980 13.034298,207.763611 
	C12.963559,207.553421 12.945507,207.110229 12.945507,207.110229 
	C12.983449,192.379333 13.021391,177.648438 13.056101,162.188385 
	C13.089831,161.286743 13.126794,161.114258 13.409747,160.618073 
	C13.767630,149.865387 13.879522,139.436401 13.995143,128.538300 
	C13.999560,117.120598 14.039680,106.171707 13.960706,95.223679 
	C13.948081,93.473671 13.401879,91.727516 12.894598,89.944069 
	C12.686846,89.908562 12.265818,89.888046 12.199169,89.604706 
	C12.134006,89.127342 12.135489,88.933304 12.136974,88.739258 
	C12.028011,88.471832 12.096410,88.262299 12.859541,88.040077 
	C13.930522,87.644089 14.484133,87.318687 15.037745,86.993286 
	C25.539831,80.734406 36.008461,74.418526 46.551708,68.229767 
	C63.146217,58.488983 79.780418,48.815647 96.417961,39.148403 
	C108.208374,32.297581 120.035652,25.510229 131.836990,18.678177 
	C133.685608,17.607975 135.483734,16.450598 137.846344,15.630159 
	C138.605042,25.927114 138.822586,35.927444 139.040131,45.927773 
z"/>
<path fill="#3122BC" opacity="1.000000" stroke="none" 
	d="
M266.974121,381.996674 
	C270.115204,380.718201 273.448303,379.774841 276.364288,378.103668 
	C289.472595,370.591156 302.452179,362.854431 315.497711,355.231995 
	C330.515228,346.457306 345.541718,337.697845 360.586212,328.969513 
	C372.071167,322.306366 383.590240,315.701965 395.715149,309.112000 
	C396.508148,309.209564 396.680145,309.266571 396.852173,309.323608 
	C397.237762,312.551300 397.623383,315.778961 397.559265,319.674530 
	C397.104401,333.882507 397.099243,347.422577 397.001923,361.426636 
	C396.882843,370.921997 396.855957,379.953400 396.593353,389.324646 
	C396.241180,391.473907 396.026947,393.283203 396.023315,395.092865 
	C395.983307,414.995392 395.976074,434.897980 395.959961,454.800568 
	C381.938171,447.021729 367.843536,439.370605 353.913361,431.431030 
	C337.265778,421.942657 320.792084,412.149719 304.179291,402.599640 
	C293.233612,396.307373 282.192383,390.179962 271.137054,384.081879 
	C270.199524,383.564728 268.831085,383.828857 267.143982,383.740479 
	C266.741455,383.166199 266.857788,382.581421 266.974121,381.996674 
z"/>
<path fill="#4526DF" opacity="1.000000" stroke="none" 
	d="
M15.996145,233.998779 
	C34.751793,223.061035 53.509209,212.126343 72.262520,201.184601 
	C87.431450,192.334198 102.562271,183.417816 117.776421,174.645889 
	C124.771187,170.612961 131.925034,166.855972 139.454132,163.411011 
	C139.939896,166.656265 139.930283,169.465988 140.026154,172.272110 
	C140.261124,179.150269 140.544769,186.026779 140.808838,192.903946 
	C140.853119,197.626114 140.897400,202.348267 140.638245,207.859589 
	C140.222107,210.627106 140.011124,212.605499 140.011398,214.583862 
	C140.015442,243.649918 140.089844,272.716125 139.984207,301.781677 
	C139.976639,303.864044 138.700882,305.941803 137.668228,307.975159 
	C134.860443,306.339905 132.399231,304.751221 129.811218,302.830994 
	C128.450562,302.009552 127.216660,301.519562 125.991531,301.015381 
	C126.000305,301.001221 125.980217,301.024841 125.809738,300.783508 
	C125.088638,300.370026 124.538010,300.197906 123.988861,300.013855 
	C123.990349,300.001892 123.972794,300.023468 123.919556,299.681396 
	C122.906265,298.903870 121.946220,298.468445 120.993042,298.018921 
	C120.999908,298.004791 120.975639,298.022827 120.806641,297.781433 
	C120.087929,297.370117 119.538223,297.200226 118.993149,297.018707 
	C118.997772,297.007080 118.974792,297.015045 118.867409,296.800720 
	C118.562912,296.319611 118.305824,296.137421 117.987099,296.025635 
	C117.985435,296.011414 117.960358,296.025482 117.795685,295.783508 
	C117.085236,295.375488 116.539444,295.209412 115.991013,295.030579 
	C115.988373,295.017761 115.962921,295.023743 115.797623,294.782379 
	C115.086845,294.374939 114.541359,294.208862 113.988113,294.033569 
	C113.980347,294.024353 113.961372,294.009491 113.856613,293.794891 
	C113.556389,293.313293 113.300438,293.131409 112.984268,293.019012 
	C112.984528,293.003418 112.964584,293.030182 112.810501,292.717712 
	C110.740791,291.615845 108.825172,290.826416 106.557495,289.989746 
	C97.105858,284.818176 87.955055,279.782379 78.917191,274.551453 
	C58.937767,262.987762 39.062847,251.242340 19.012272,239.804230 
	C16.345100,238.282715 14.455747,237.282120 15.996145,233.998779 
z"/>
<path fill="#3122BD" opacity="1.000000" stroke="none" 
	d="
M266.844971,381.673859 
	C266.857788,382.581421 266.741455,383.166199 266.836548,383.914185 
	C250.203812,394.096893 233.372040,404.137360 216.512085,414.130280 
	C197.667831,425.299316 178.815552,436.455048 159.928528,447.551483 
	C154.316559,450.848602 148.575699,453.926331 142.481064,457.335510 
	C142.279602,455.758972 142.158508,454.811371 142.100769,453.096924 
	C142.222855,451.538300 142.281586,450.746521 142.537354,449.597504 
	C142.816330,448.749481 142.969803,448.258728 142.970032,447.767914 
	C142.988358,408.445129 143.002884,369.122375 142.964951,329.799622 
	C142.963745,328.543762 142.415085,327.288391 142.049377,325.795166 
	C141.977097,325.557495 141.913864,325.064758 141.913864,325.064758 
	C141.677353,321.811401 141.338089,318.560577 141.258209,315.303375 
	C141.228958,314.110962 141.519897,312.653107 142.240021,311.804596 
	C142.620529,311.356232 144.394943,311.662537 145.270630,312.131348 
	C151.578629,315.508179 157.873032,318.917999 164.067230,322.498230 
	C178.400482,330.782654 192.637512,339.233826 206.985092,347.493134 
	C217.532013,353.564514 228.206894,359.413147 238.797638,365.408936 
	C248.123230,370.688507 257.411224,376.034424 266.844971,381.673859 
z"/>
<path fill="#3121BD" opacity="1.000000" stroke="none" 
	d="
M523.059814,379.854034 
	C515.441284,375.742462 507.763885,371.735596 500.217773,367.495117 
	C488.474518,360.896088 476.829803,354.121765 465.126282,347.451752 
	C449.583832,338.593933 434.033569,329.749847 418.469208,320.930603 
	C411.748596,317.122467 404.984314,313.391449 398.067444,309.064178 
	C397.894958,308.502960 397.822174,308.028961 398.159180,308.004700 
	C399.343506,307.327972 400.190826,306.675507 401.248657,305.882233 
	C401.652863,305.467804 401.846588,305.194214 402.269043,304.934631 
	C402.497742,304.948608 402.956055,304.948944 403.276184,304.825745 
	C412.306763,299.640747 420.995667,294.541290 429.735504,289.530762 
	C435.326965,286.325195 441.058594,283.361115 446.611267,280.091583 
	C454.663605,275.350220 462.570282,270.361633 470.615540,265.607880 
	C477.715851,261.412537 484.960602,257.462067 492.069946,253.281631 
	C501.753021,247.587753 511.368011,241.778061 521.067322,236.400681 
	C521.745605,239.294846 522.888428,241.802109 522.909119,244.318573 
	C523.064453,263.276733 522.973328,282.236786 523.041504,301.195953 
	C523.048401,303.113464 523.599365,305.028961 523.922607,307.353333 
	C523.931091,308.850281 523.914917,309.939270 523.767883,311.121094 
	C523.458923,311.535797 523.546387,311.788452 523.927856,312.375854 
	C523.949402,313.859314 523.942444,314.938782 523.714600,316.214294 
	C523.642822,317.268005 523.791992,318.125671 523.962891,319.313965 
	C524.004944,320.085632 524.025330,320.526672 524.027222,321.438080 
	C524.015320,339.131500 524.054932,356.354645 523.985718,373.577393 
	C523.977295,375.670837 523.382690,377.761871 523.059814,379.854034 
z"/>
<path fill="#3121BD" opacity="1.000000" stroke="none" 
	d="
M129.938004,303.162506 
	C132.399231,304.751221 134.860443,306.339905 137.954865,308.101501 
	C139.381927,308.517181 140.175781,308.759979 140.969650,309.002808 
	C136.722321,311.980865 132.662262,315.279968 128.197067,317.884521 
	C100.530685,334.022217 72.765045,349.989624 45.050621,366.045105 
	C35.580158,371.531494 26.162382,377.108795 16.321264,382.399414 
	C15.322267,381.754395 14.722547,381.354584 14.080969,380.617188 
	C14.078951,379.828949 14.118790,379.378265 14.411450,378.608490 
	C14.779264,376.809998 14.992796,375.330658 14.994232,373.851166 
	C15.011328,356.237274 14.996849,338.623383 14.995144,320.540253 
	C14.999013,306.114258 15.032535,292.157318 14.954398,278.200989 
	C14.944666,276.462799 14.343195,274.727875 13.991734,272.524170 
	C13.682539,264.358521 13.397525,256.660126 13.078007,248.507095 
	C12.980421,244.702515 12.917337,241.352554 12.958191,237.743942 
	C13.124228,237.310104 13.186328,237.134949 13.441481,236.712448 
	C13.758986,235.642944 13.883437,234.820786 14.007889,233.998642 
	C14.449758,233.998886 14.891625,233.999130 15.664820,233.999084 
	C14.455747,237.282120 16.345100,238.282715 19.012272,239.804230 
	C39.062847,251.242340 58.937767,262.987762 78.917191,274.551453 
	C87.955055,279.782379 97.105858,284.818176 106.743896,290.292236 
	C109.176437,291.438019 111.070511,292.234100 112.964584,293.030182 
	C112.964584,293.030182 112.984528,293.003418 113.082596,293.238586 
	C113.375961,293.746918 113.636200,293.925507 113.961372,294.009491 
	C113.961372,294.009491 113.980347,294.024353 114.155815,294.270874 
	C114.875160,294.686188 115.419044,294.854950 115.962921,295.023743 
	C115.962921,295.023743 115.988373,295.017761 116.155441,295.271423 
	C116.868454,295.691864 117.414406,295.858673 117.960358,296.025482 
	C117.960358,296.025482 117.985435,296.011414 118.089264,296.243286 
	C118.395454,296.739319 118.656029,296.919312 118.974792,297.015045 
	C118.974792,297.015045 118.997772,297.007080 119.169289,297.251892 
	C119.885750,297.672119 120.430695,297.847473 120.975632,298.022827 
	C120.975639,298.022827 120.999908,298.004791 121.140724,298.299194 
	C122.178627,299.070221 123.075706,299.546844 123.972794,300.023468 
	C123.972794,300.023468 123.990349,300.001892 124.162971,300.249817 
	C124.883804,300.673431 125.432007,300.849152 125.980217,301.024841 
	C125.980217,301.024841 126.000305,301.001221 126.155807,301.311768 
	C127.520210,302.135712 128.729111,302.649109 129.938004,303.162506 
z"/>
<path fill="#4B45B3" opacity="1.000000" stroke="none" 
	d="
M279.398712,228.849060 
	C281.970306,226.267731 284.586914,223.215820 287.872040,221.326004 
	C299.794220,214.467606 312.004669,208.112534 323.984039,201.350906 
	C335.932678,194.606628 347.714111,187.566727 359.615204,180.737198 
	C362.510956,179.075439 365.588379,177.730209 368.952698,176.455566 
	C360.694061,181.856552 352.097900,187.097153 343.429108,192.214661 
	C325.555237,202.766235 307.657959,213.278488 289.731628,223.740677 
	C286.499512,225.626999 283.082275,227.196106 279.398712,228.849060 
z"/>
<path fill="#4F48D3" opacity="1.000000" stroke="none" 
	d="
M269.961884,88.733795 
	C269.714508,90.864090 269.044647,92.743408 269.038025,94.625061 
	C268.962769,116.065140 268.988739,137.505569 268.987671,158.945908 
	C268.987579,160.690903 268.987640,162.435898 268.987640,164.180893 
	C268.465698,164.225449 267.943756,164.269989 267.421814,164.314545 
	C267.285950,162.707581 267.034271,161.100784 267.031708,159.493607 
	C266.997589,138.219513 267.040100,116.945168 266.938751,95.671478 
	C266.925903,92.972961 266.205750,90.277824 265.900818,87.264923 
	C267.092957,86.630981 268.197510,86.313232 269.656555,85.941971 
	C269.956482,86.753601 269.901947,87.618752 269.961884,88.733795 
z"/>
<path fill="#6254C4" opacity="1.000000" stroke="none" 
	d="
M141.322617,308.758484 
	C140.175781,308.759979 139.381927,308.517181 138.301422,308.148010 
	C138.700882,305.941803 139.976639,303.864044 139.984207,301.781677 
	C140.089844,272.716125 140.015442,243.649918 140.011398,214.583862 
	C140.011124,212.605499 140.222107,210.627106 140.593384,208.324265 
	C140.911438,211.818161 140.985046,215.636383 141.028198,219.454926 
	C141.341217,247.154755 141.655228,274.854584 141.941971,302.554688 
	C141.962509,304.540039 141.769363,306.527618 141.322617,308.758484 
z"/>
<path fill="#4B45B3" opacity="1.000000" stroke="none" 
	d="
M523.232910,380.151611 
	C523.382690,377.761871 523.977295,375.670837 523.985718,373.577393 
	C524.054932,356.354645 524.015320,339.131500 524.226562,321.446350 
	C524.444458,320.984283 524.844421,320.983826 524.844421,320.983826 
	C524.895142,326.133820 524.894714,331.284912 525.006470,336.433594 
	C525.290283,349.510803 525.714233,362.586212 525.821411,375.664459 
	C525.834473,377.252655 524.250061,378.853973 523.232910,380.151611 
z"/>
<path fill="#DDDAFF" opacity="1.000000" stroke="none" 
	d="
M142.340317,449.954742 
	C142.281586,450.746521 142.222855,451.538300 142.140335,452.728210 
	C141.738434,451.673431 141.034302,450.221313 141.030899,448.767517 
	C140.975647,425.155945 141.009201,401.544159 141.261414,377.470062 
	C141.500122,377.007721 141.839920,377.021088 141.896881,377.485474 
	C142.082657,401.951477 142.211487,425.953094 142.340317,449.954742 
z"/>
<path fill="#2A1D9D" opacity="1.000000" stroke="none" 
	d="
M396.152893,454.856781 
	C395.976074,434.897980 395.983307,414.995392 396.023315,395.092865 
	C396.026947,393.283203 396.241180,391.473907 396.663239,389.717987 
	C397.026154,390.831390 397.083496,391.891266 397.055908,393.416199 
	C396.967773,396.031036 396.968933,398.180817 396.960602,400.330536 
	C396.890289,418.514893 396.818207,436.699280 396.746643,454.883636 
	C396.746674,454.883636 396.345856,454.912994 396.152893,454.856781 
z"/>
<path fill="#4B45B3" opacity="1.000000" stroke="none" 
	d="
M369.975494,176.298523 
	C370.553741,175.173996 371.204193,173.604996 372.378601,172.829880 
	C379.162994,168.352081 386.071075,164.061707 392.997192,159.362579 
	C393.566071,159.304108 394.074982,159.590927 394.706177,160.287292 
	C394.557617,161.423813 394.286865,162.150787 394.016113,162.877747 
	C386.107300,167.325424 378.198517,171.773087 369.975494,176.298523 
z"/>
<path fill="#8F89CF" opacity="1.000000" stroke="none" 
	d="
M396.947754,455.232666 
	C396.818207,436.699280 396.890289,418.514893 396.960602,400.330536 
	C396.968933,398.180817 396.967773,396.031036 397.228821,393.420410 
	C397.486664,392.959534 397.832672,392.964600 397.832672,392.964600 
	C397.879608,413.364227 397.932098,433.763855 397.938843,454.163483 
	C397.938995,454.636108 397.423737,455.108948 396.947754,455.232666 
z"/>
<path fill="#FFFFFF" opacity="1.000000" stroke="none" 
	d="
M523.763855,122.916267 
	C523.803711,122.750633 523.843506,122.585007 523.907104,122.164955 
	C524.287354,123.377525 524.947144,124.843216 524.953491,126.311729 
	C525.023804,142.567383 524.992859,158.823471 524.745605,175.544937 
	C524.502014,176.010437 524.156189,175.990143 524.096985,175.524628 
	C523.974426,164.057175 523.911072,153.055237 523.945618,141.590454 
	C523.950317,135.057190 523.857056,128.986725 523.763855,122.916267 
z"/>
<path fill="#D3CEFF" opacity="1.000000" stroke="none" 
	d="
M397.822174,308.028961 
	C397.822174,308.028961 397.894958,308.502960 397.922424,308.740997 
	C397.751160,308.983307 397.552429,308.987579 397.102936,309.157745 
	C396.680145,309.266571 396.508148,309.209564 396.063477,309.142395 
	C395.869934,293.403076 395.949036,277.673889 396.257263,261.485382 
	C396.486420,261.026031 396.806274,261.032318 396.857666,261.496155 
	C397.039978,273.631622 397.170959,285.303284 397.242798,297.420410 
	C397.234497,300.549347 397.285370,303.232758 397.253754,306.209747 
	C397.388245,307.011871 397.605194,307.520416 397.822174,308.028961 
z"/>
<path fill="#C4B3FC" opacity="1.000000" stroke="none" 
	d="
M396.806274,261.032318 
	C396.806274,261.032318 396.486420,261.026031 396.326477,261.022461 
	C396.124817,246.994003 396.083038,232.969131 396.268311,218.484650 
	C396.495361,218.025070 396.821136,218.033493 396.869385,218.497925 
	C396.994263,228.296707 397.070831,237.631058 397.069641,247.426773 
	C396.929993,252.269531 396.868134,256.650909 396.806274,261.032318 
z"/>
<path fill="#ECE4FF" opacity="1.000000" stroke="none" 
	d="
M11.732409,88.961319 
	C12.135489,88.933304 12.134006,89.127342 12.075128,90.066116 
	C12.116646,95.544960 12.215558,100.279068 12.275440,105.479111 
	C12.284528,113.557137 12.332648,121.169243 12.232656,129.068436 
	C11.774453,129.881500 11.464365,130.407471 11.154276,130.933441 
	C11.212131,117.016754 11.269986,103.100067 11.732409,88.961319 
z"/>
<path fill="#D3CEFF" opacity="1.000000" stroke="none" 
	d="
M397.094116,360.962677 
	C397.099243,347.422577 397.104401,333.882507 397.476196,320.091125 
	C397.883057,333.244598 397.923279,346.649353 397.715027,360.513855 
	C397.466553,360.973602 397.094116,360.962677 397.094116,360.962677 
z"/>
<path fill="#DDDAFF" opacity="1.000000" stroke="none" 
	d="
M12.156169,314.928619 
	C12.109038,301.595703 12.061903,288.262787 12.283434,274.462280 
	C12.552099,273.994720 12.942578,273.978394 13.024062,274.442261 
	C13.214650,287.252747 13.323755,299.599304 13.314495,312.180786 
	C13.191591,312.590973 13.187052,312.766266 13.097582,313.223755 
	C12.727156,313.980133 12.441659,314.454376 12.156169,314.928619 
z"/>
<path fill="#837CCA" opacity="1.000000" stroke="none" 
	d="
M11.097250,131.380066 
	C11.464365,130.407471 11.774453,129.881500 12.421876,129.088165 
	C12.759210,128.820816 13.110506,128.966980 13.057246,129.435760 
	C13.057243,140.250305 13.110500,150.596039 13.163757,160.941788 
	C13.126794,161.114258 13.089831,161.286743 13.010399,161.720428 
	C12.634640,160.989151 12.049224,160.007172 12.007446,159.002579 
	C11.630812,149.946198 11.349503,140.885864 11.097250,131.380066 
z"/>
<path fill="#978DE6" opacity="1.000000" stroke="none" 
	d="
M14.158630,378.927582 
	C14.118790,379.378265 14.078951,379.828949 14.030247,380.961517 
	C14.044665,382.329346 14.067949,383.015320 14.091233,383.701263 
	C13.717377,382.317474 13.027399,380.935486 13.019616,379.549652 
	C12.956723,368.350067 13.022021,357.149750 13.269159,345.491760 
	C13.490114,345.033844 13.798719,345.037018 13.850674,345.500488 
	C13.987962,356.951843 14.073297,367.939728 14.158630,378.927582 
z"/>
<path fill="#857BD8" opacity="1.000000" stroke="none" 
	d="
M13.798719,345.037018 
	C13.798719,345.037018 13.490114,345.033844 13.335886,345.028870 
	C12.805928,335.284668 12.430201,325.545441 12.105318,315.367401 
	C12.441659,314.454376 12.727156,313.980133 13.266640,313.258179 
	C13.520627,313.010406 13.858221,313.084106 13.873777,313.523132 
	C13.955510,316.310699 14.021685,318.659210 14.036010,321.473328 
	C13.922347,329.638306 13.860534,337.337677 13.798719,345.037018 
z"/>
<path fill="#D3CEFF" opacity="1.000000" stroke="none" 
	d="
M12.942578,273.978394 
	C12.942578,273.978394 12.552099,273.994720 12.356737,273.998962 
	C12.116403,262.313110 12.071432,250.623047 12.269863,238.470825 
	C12.513265,238.008667 12.854254,238.002609 12.854254,238.002609 
	C12.917337,241.352554 12.980421,244.702515 12.991125,248.972290 
	C13.042133,257.954468 13.145519,266.016846 13.150742,274.119568 
	C13.052579,274.159943 12.942578,273.978394 12.942578,273.978394 
z"/>
<path fill="#7168BB" opacity="1.000000" stroke="none" 
	d="
M523.908447,120.714142 
	C523.574280,117.468437 523.135620,113.737740 523.027710,109.997498 
	C522.804749,102.272400 522.758118,94.542213 522.770203,86.490486 
	C523.284973,87.584190 523.990906,88.999413 524.000183,90.419205 
	C524.065247,100.353882 523.986389,110.289505 523.908447,120.714142 
z"/>
<path fill="#5142D5" opacity="1.000000" stroke="none" 
	d="
M267.039398,233.307281 
	C267.277466,231.151108 267.920319,229.273270 267.945740,227.387100 
	C268.058655,219.004501 267.994720,210.619553 269.127075,202.237991 
	C269.127075,212.269882 269.127075,222.301773 269.102997,232.715698 
	C268.439270,233.259079 267.799591,233.420441 267.039398,233.307281 
z"/>
<path fill="#4F48D3" opacity="1.000000" stroke="none" 
	d="
M139.310684,45.623741 
	C138.822586,35.927444 138.605042,25.927114 138.181610,15.575309 
	C139.242599,15.247854 140.509430,15.271877 141.946869,15.639530 
	C141.413345,17.569450 140.164017,19.133055 140.096909,20.745850 
	C139.756393,28.930119 139.722534,37.127148 139.310684,45.623741 
z"/>
<path fill="#857BD8" opacity="1.000000" stroke="none" 
	d="
M394.384521,162.805969 
	C394.286865,162.150787 394.557617,161.423813 394.961243,160.433350 
	C395.094086,160.169830 395.093781,160.135620 395.319519,160.118622 
	C395.545227,160.101624 395.977112,160.065323 396.210388,160.066681 
	C396.443634,160.068054 396.907379,160.017197 396.907379,160.017197 
	C396.964203,160.483505 397.021057,160.949829 397.052917,162.128830 
	C397.065491,163.585785 397.103058,164.330032 397.091827,165.534088 
	C396.979706,174.011215 396.916443,182.028534 396.679291,190.034637 
	C396.505432,190.023392 396.156952,190.019379 396.156952,190.019379 
	C396.092285,181.123123 396.031250,172.226852 395.946075,163.330795 
	C395.943390,163.051697 395.755341,162.677734 395.532990,162.531097 
	C395.382874,162.432114 395.020386,162.655167 394.384521,162.805969 
z"/>
<path fill="#A39AF1" opacity="1.000000" stroke="none" 
	d="
M522.994324,234.072891 
	C523.334900,233.871582 523.675537,233.670288 524.269470,233.185913 
	C524.522827,232.902832 524.763794,232.940674 524.763794,232.940674 
	C524.828430,243.308502 524.893066,253.676331 524.726562,264.504578 
	C524.495422,264.965027 524.153076,264.945251 524.112183,264.482239 
	C524.039917,257.864502 524.110840,251.706940 523.938049,245.556213 
	C523.838135,241.999588 523.345398,238.453979 523.010254,234.696228 
	C522.991089,234.489029 522.994324,234.072891 522.994324,234.072891 
z"/>
<path fill="#B2AEEB" opacity="1.000000" stroke="none" 
	d="
M397.001923,361.426636 
	C397.094116,360.962677 397.466553,360.973602 397.652802,360.977692 
	C397.874451,371.333893 397.909821,381.685974 397.888947,392.501343 
	C397.832672,392.964600 397.486664,392.959534 397.313751,392.955322 
	C397.083496,391.891266 397.026154,390.831390 396.898956,389.378174 
	C396.855957,379.953400 396.882843,370.921997 397.001923,361.426636 
z"/>
<path fill="#857BD8" opacity="1.000000" stroke="none" 
	d="
M524.153076,264.945251 
	C524.153076,264.945251 524.495422,264.965027 524.666870,264.968018 
	C524.870605,275.330170 524.902954,285.689331 524.705322,296.498108 
	C524.475281,296.947723 524.126465,296.918945 524.104187,296.458008 
	C524.105591,285.646454 524.129333,275.295868 524.153076,264.945251 
z"/>
<path fill="#C3BBFF" opacity="1.000000" stroke="none" 
	d="
M12.958191,237.743942 
	C12.854254,238.002609 12.513265,238.008667 12.342747,238.007629 
	C12.166778,227.821854 12.161325,217.637131 12.550690,207.281311 
	C12.945507,207.110229 12.963559,207.553421 12.976896,208.233627 
	C13.076298,218.262497 13.162363,227.611145 13.248428,236.959808 
	C13.186328,237.134949 13.124228,237.310104 12.958191,237.743942 
z"/>
<path fill="#978DE6" opacity="1.000000" stroke="none" 
	d="
M140.875580,192.445633 
	C140.544769,186.026779 140.261124,179.150269 140.026154,172.272110 
	C139.930283,169.465988 139.939896,166.656265 139.810211,163.378143 
	C139.718887,162.908096 139.816376,162.935242 140.084305,162.941498 
	C140.352234,162.947769 140.795471,162.975693 140.795471,162.975693 
	C140.795471,162.975693 140.952026,163.112518 141.045151,163.066345 
	C141.072952,172.675888 141.007645,182.331604 140.875580,192.445633 
z"/>
<path fill="#C3BBFF" opacity="1.000000" stroke="none" 
	d="
M524.862488,232.486328 
	C524.763794,232.940674 524.522827,232.902832 524.401733,232.917160 
	C524.196167,232.773926 524.111572,232.616364 524.014282,231.748749 
	C524.058838,222.016037 524.116089,212.993362 524.338989,203.976410 
	C524.504578,203.982147 524.835938,203.988602 524.835938,203.988602 
	C524.877686,213.336395 524.919434,222.684189 524.862488,232.486328 
z"/>
<path fill="#DDDAFF" opacity="1.000000" stroke="none" 
	d="
M524.903931,203.524933 
	C524.835938,203.988602 524.504578,203.982147 524.285828,203.512421 
	C524.096741,194.025177 524.126465,185.007660 524.156128,175.990143 
	C524.156189,175.990143 524.502014,176.010437 524.675232,176.009430 
	C524.889648,185.026031 524.930786,194.043655 524.903931,203.524933 
z"/>
<path fill="#A39AF1" opacity="1.000000" stroke="none" 
	d="
M396.100891,190.484131 
	C396.156952,190.019379 396.505432,190.023392 396.716553,190.498779 
	C396.892151,199.993958 396.856659,209.013718 396.821136,218.033493 
	C396.821136,218.033493 396.495361,218.025070 396.332458,218.020981 
	C396.127991,208.994232 396.086395,199.971558 396.100891,190.484131 
z"/>
<path fill="#B2AEEB" opacity="1.000000" stroke="none" 
	d="
M141.531067,325.259338 
	C141.913864,325.064758 141.977097,325.557495 141.993286,326.258972 
	C141.958847,334.977325 141.908218,342.994202 141.679962,351.006989 
	C141.502335,351.002930 141.147141,351.013855 141.147141,351.013855 
	C141.147507,342.493896 141.147888,333.973907 141.531067,325.259338 
z"/>
<path fill="#C3BBFF" opacity="1.000000" stroke="none" 
	d="
M141.082794,351.477722 
	C141.147141,351.013855 141.502335,351.002930 141.733154,351.472717 
	C141.922623,360.302063 141.881271,368.661560 141.839920,377.021088 
	C141.839920,377.021088 141.500122,377.007721 141.330093,377.006165 
	C141.112854,368.650299 141.065643,360.295929 141.082794,351.477722 
z"/>
<path fill="#6254C4" opacity="1.000000" stroke="none" 
	d="
M524.126465,296.918945 
	C524.126465,296.918945 524.475281,296.947723 524.649658,296.962311 
	C524.868530,304.669281 524.912964,312.361694 524.900879,320.518951 
	C524.844421,320.983826 524.444458,320.984283 524.245117,320.976013 
	C524.025330,320.526672 524.004944,320.085632 523.985779,318.943756 
	C523.969849,317.501343 523.952637,316.759796 523.935425,316.018219 
	C523.942444,314.938782 523.949402,313.859314 523.945190,312.140137 
	C523.934082,311.500427 523.898804,311.028290 523.898804,311.028290 
	C523.914917,309.939270 523.931091,308.850281 523.949707,306.904907 
	C524.010254,303.005341 524.068359,299.962128 524.126465,296.918945 
z"/>
<path fill="#2A1D9D" opacity="1.000000" stroke="none" 
	d="
M14.357569,383.637207 
	C14.067949,383.015320 14.044665,382.329346 14.072104,381.299072 
	C14.722547,381.354584 15.322267,381.754395 15.983076,382.435974 
	C15.570745,383.002838 15.097324,383.288025 14.357569,383.637207 
z"/>
<path fill="#6254C4" opacity="1.000000" stroke="none" 
	d="
M14.704773,87.013107 
	C14.484133,87.318687 13.930522,87.644089 13.034531,88.000031 
	C13.252033,87.698029 13.811917,87.365479 14.704773,87.013107 
z"/>
<path fill="#3F13E1" opacity="1.000000" stroke="none" 
	d="
M522.727417,233.864029 
	C522.994324,234.072891 522.991089,234.489029 522.752319,234.824738 
	C522.013062,235.446304 521.512634,235.732162 521.012207,236.018036 
	C511.368011,241.778061 501.753021,247.587753 492.069946,253.281631 
	C484.960602,257.462067 477.715851,261.412537 470.615540,265.607880 
	C462.570282,270.361633 454.663605,275.350220 446.611267,280.091583 
	C441.058594,283.361115 435.326965,286.325195 429.735504,289.530762 
	C420.995667,294.541290 412.306763,299.640747 403.262482,304.605774 
	C402.789581,304.276825 402.650543,304.044617 402.511475,303.812408 
	C402.354431,304.181824 402.197357,304.551239 402.040314,304.920624 
	C401.846588,305.194214 401.652863,305.467804 400.877258,305.872864 
	C399.308990,305.974945 398.322601,305.945557 397.336243,305.916168 
	C397.285370,303.232758 397.234497,300.549347 397.460480,297.073853 
	C397.815887,279.863708 397.894501,263.445618 397.978699,246.556061 
	C397.987152,220.834106 398.006897,195.583633 397.956116,170.333282 
	C397.952606,168.579742 397.424683,166.827271 397.140656,165.074295 
	C397.103058,164.330032 397.065491,163.585785 397.099060,162.478119 
	C397.170166,162.114731 397.550049,162.058517 397.978363,162.273590 
	C399.277710,162.659897 400.148743,162.831161 401.019775,163.002411 
	C401.019775,163.002411 401.000000,163.000015 401.123474,163.217896 
	C401.535309,163.622208 401.823669,163.808624 402.112061,163.995026 
	C406.605194,166.604401 411.085602,169.235977 415.594025,171.818680 
	C426.150269,177.865967 436.719910,183.889847 447.795593,190.275665 
	C449.876434,191.413208 451.445862,192.198288 453.015289,192.983383 
	C453.015289,192.983383 453.000000,193.000000 453.142944,193.281677 
	C454.195618,194.038055 455.105286,194.512741 456.014984,194.987411 
	C456.014984,194.987411 456.001221,195.000626 456.159668,195.298096 
	C459.215546,197.075974 462.113007,198.556381 465.010437,200.036804 
	C475.454193,205.936829 485.897919,211.836853 496.728424,218.221420 
	C500.080048,220.135269 503.044891,221.564560 506.009766,222.993851 
	C506.009766,222.993851 506.000000,223.000000 506.061035,223.335327 
	C507.087067,224.109421 508.052063,224.548187 509.017090,224.986969 
	C509.017090,224.986969 509.000000,225.000793 509.155945,225.299164 
	C510.874512,226.414398 512.437134,227.231247 513.999756,228.048096 
	C516.820007,229.917114 519.640198,231.786148 522.727417,233.864029 
z"/>
<path fill="#3C2F99" opacity="1.000000" stroke="none" 
	d="
M524.096924,175.524628 
	C524.126465,185.007660 524.096741,194.025177 524.120239,203.506683 
	C524.116089,212.993362 524.058838,222.016037 523.919312,231.497849 
	C523.557007,230.528885 523.034790,229.101135 523.032654,227.672592 
	C522.990356,199.368881 523.008179,171.065063 523.234680,142.353271 
	C523.455566,141.945267 523.847717,142.053284 523.847717,142.053284 
	C523.911072,153.055237 523.974426,164.057175 524.096924,175.524628 
z"/>
<path fill="#5142D5" opacity="1.000000" stroke="none" 
	d="
M397.199799,159.972321 
	C396.907379,160.017197 396.443634,160.068054 396.211334,159.789246 
	C395.972076,159.326080 395.965088,159.141693 395.958069,158.957321 
	C395.972931,135.284531 395.987793,111.611755 396.243195,87.475494 
	C396.483704,87.012016 396.963867,87.035835 396.963867,87.035835 
	C396.978546,108.035500 396.972595,129.035217 397.029175,150.034760 
	C397.038086,153.332703 397.330750,156.629898 397.199799,159.972321 
z"/>
<path fill="#3B32C7" opacity="1.000000" stroke="none" 
	d="
M394.987244,24.105623 
	C394.987061,21.166887 394.987061,18.708923 394.987061,16.250959 
	C395.229340,16.252174 395.471588,16.253387 395.713867,16.254601 
	C395.713867,25.075230 395.713867,33.895859 395.713867,42.716488 
	C395.471710,42.723003 395.229553,42.729519 394.987396,42.736034 
	C394.987396,36.686153 394.987396,30.636274 394.987244,24.105623 
z"/>
<path fill="#3B32C7" opacity="1.000000" stroke="none" 
	d="
M396.978882,86.563782 
	C396.963867,87.035835 396.483704,87.012016 396.243408,87.006958 
	C396.003143,79.740768 396.003143,72.479645 396.003143,65.218521 
	C396.333374,65.220406 396.663635,65.222290 396.993866,65.224174 
	C396.993866,72.180031 396.993866,79.135880 396.978882,86.563782 
z"/>
<path fill="#7168BB" opacity="1.000000" stroke="none" 
	d="
M523.945618,141.590454 
	C523.847717,142.053284 523.455566,141.945267 523.265442,141.872955 
	C523.155334,135.740891 523.235291,129.681122 523.539551,123.268814 
	C523.857056,128.986725 523.950317,135.057190 523.945618,141.590454 
z"/>
<path fill="#4B2DDD" opacity="1.000000" stroke="none" 
	d="
M505.849945,222.691452 
	C503.044891,221.564560 500.080048,220.135269 497.042419,218.368042 
	C499.876495,219.483078 502.783295,220.936066 505.849945,222.691452 
z"/>
<path fill="#4B2DDD" opacity="1.000000" stroke="none" 
	d="
M464.952606,199.690201 
	C462.113007,198.556381 459.215546,197.075974 456.162750,195.290161 
	C458.969849,196.437698 461.932312,197.890656 464.952606,199.690201 
z"/>
<path fill="#4B2DDD" opacity="1.000000" stroke="none" 
	d="
M452.856018,192.680023 
	C451.445862,192.198288 449.876434,191.413208 448.145782,190.325378 
	C449.555267,190.807312 451.126007,191.591980 452.856018,192.680023 
z"/>
<path fill="#4B2DDD" opacity="1.000000" stroke="none" 
	d="
M513.861938,227.728424 
	C512.437134,227.231247 510.874512,226.414398 509.159027,225.288605 
	C510.578827,225.789352 512.151489,226.599045 513.861938,227.728424 
z"/>
<path fill="#5142D5" opacity="1.000000" stroke="none" 
	d="
M386.811768,154.746826 
	C385.733643,154.560638 384.445282,154.122345 383.078674,153.330780 
	C384.200775,153.483246 385.401154,153.988983 386.811768,154.746826 
z"/>
<path fill="#5142D5" opacity="1.000000" stroke="none" 
	d="
M380.860901,151.689850 
	C379.780212,151.488083 378.533630,150.986389 377.148254,150.150360 
	C378.237976,150.340652 379.466492,150.865295 380.860901,151.689850 
z"/>
<path fill="#4B2DDD" opacity="1.000000" stroke="none" 
	d="
M508.873108,224.700470 
	C508.052063,224.548187 507.087067,224.109421 506.063721,223.329468 
	C506.913330,223.463531 507.821198,223.938751 508.873108,224.700470 
z"/>
<path fill="#4B2DDD" opacity="1.000000" stroke="none" 
	d="
M455.952911,194.650452 
	C455.105286,194.512741 454.195618,194.038055 453.148041,193.271576 
	C453.970398,193.424332 454.930603,193.868896 455.952911,194.650452 
z"/>
<path fill="#5142D5" opacity="1.000000" stroke="none" 
	d="
M400.791077,162.752197 
	C400.148743,162.831161 399.277710,162.659897 398.168762,162.248901 
	C398.808044,162.173431 399.685242,162.337708 400.791077,162.752197 
z"/>
<path fill="#5142D5" opacity="1.000000" stroke="none" 
	d="
M392.850891,158.749298 
	C392.468140,158.813370 391.909821,158.635010 391.174500,158.214859 
	C391.556793,158.151001 392.116058,158.328918 392.850891,158.749298 
z"/>
<path fill="#5142D5" opacity="1.000000" stroke="none" 
	d="
M382.838562,152.764221 
	C382.465088,152.816940 381.908417,152.635544 381.174500,152.213715 
	C381.549957,152.158890 382.102692,152.344498 382.838562,152.764221 
z"/>
<path fill="#5142D5" opacity="1.000000" stroke="none" 
	d="
M389.840881,156.764282 
	C389.466888,156.818314 388.907867,156.639328 388.173767,156.217331 
	C388.551086,156.159958 389.103455,156.345596 389.840881,156.764282 
z"/>
<path fill="#4B45B3" opacity="1.000000" stroke="none" 
	d="
M395.755798,159.101654 
	C395.965088,159.141693 395.972076,159.326080 395.978088,159.787888 
	C395.977112,160.065323 395.545227,160.101624 395.329529,160.109650 
	C395.145874,159.769302 395.292450,159.478745 395.755798,159.101654 
z"/>
<path fill="#5142D5" opacity="1.000000" stroke="none" 
	d="
M401.967285,163.782593 
	C401.823669,163.808624 401.535309,163.622208 401.119263,163.208954 
	C401.268585,163.178116 401.545563,163.374130 401.967285,163.782593 
z"/>
<path fill="#5142D5" opacity="1.000000" stroke="none" 
	d="
M387.911102,155.775833 
	C387.699188,155.887115 387.432922,155.694901 387.109619,155.200592 
	C387.317230,155.093643 387.585297,155.284927 387.911102,155.775833 
z"/>
<path fill="#5142D5" opacity="1.000000" stroke="none" 
	d="
M390.916931,157.772842 
	C390.757751,157.807114 390.489685,157.614960 390.108398,157.199036 
	C390.266144,157.165665 390.537109,157.356033 390.916931,157.772842 
z"/>
<path fill="#5D51E4" opacity="1.000000" stroke="none" 
	d="
M140.864288,162.515381 
	C140.795471,162.975693 140.352234,162.947769 140.131042,162.922134 
	C139.958130,144.255417 140.006393,125.614334 140.287964,106.497955 
	C140.521286,106.022667 140.958389,106.030380 140.958389,106.030380 
	C140.949951,124.705269 140.941513,143.380157 140.864288,162.515381 
z"/>
<path fill="#5142D5" opacity="1.000000" stroke="none" 
	d="
M140.975647,105.558914 
	C140.958389,106.030380 140.521286,106.022667 140.303680,106.032219 
	C140.066833,98.025009 140.047607,90.008240 140.034073,81.531097 
	C140.360092,86.267746 140.738571,91.462112 140.977386,96.662888 
	C141.106079,99.465401 140.995529,102.278908 140.975647,105.558914 
z"/>
<path fill="#4F48D3" opacity="1.000000" stroke="none" 
	d="
M244.992661,100.992729 
	C245.941833,100.020012 246.891006,99.047287 247.840179,98.074562 
	C248.125214,98.462166 248.410233,98.849762 248.695251,99.237366 
	C247.687744,99.799843 246.680237,100.362320 245.336258,100.962273 
	C244.999786,100.999748 244.992661,100.992729 244.992661,100.992729 
z"/>
<path fill="#4F48D3" opacity="1.000000" stroke="none" 
	d="
M245.002014,101.002975 
	C244.673706,101.240623 244.343170,101.475037 244.012634,101.709450 
	C243.932571,101.593208 243.852509,101.476967 243.772461,101.360718 
	C244.028381,101.244316 244.284302,101.127922 244.766449,101.002136 
	C244.992661,100.992729 244.999786,100.999748 245.002014,101.002975 
z"/>
<path fill="#4F48D3" opacity="1.000000" stroke="none" 
	d="
M239.000595,104.725693 
	C238.951828,104.726044 239.049362,104.725334 239.000595,104.725693 
z"/>
<path fill="#4F48D3" opacity="1.000000" stroke="none" 
	d="
M241.453217,102.531090 
	C241.420670,102.477570 241.485779,102.584610 241.453217,102.531090 
z"/>
<path fill="#4F48D3" opacity="1.000000" stroke="none" 
	d="
M250.457245,97.525879 
	C250.428696,97.477005 250.485794,97.574745 250.457245,97.525879 
z"/>
<path fill="#4F48D3" opacity="1.000000" stroke="none" 
	d="
M252.462158,96.450539 
	C252.517456,96.418350 252.406845,96.482727 252.462158,96.450539 
z"/>
<path fill="#2B1CAE" opacity="1.000000" stroke="none" 
	d="
M13.110506,128.966980 
	C13.110506,128.966980 12.759210,128.820816 12.569989,128.801086 
	C12.332648,121.169243 12.284528,113.557137 12.496326,105.134811 
	C12.871614,99.542908 12.986981,94.761246 13.102350,89.979576 
	C13.401879,91.727516 13.948081,93.473671 13.960706,95.223679 
	C14.039680,106.171707 13.999560,117.120598 13.774920,128.529160 
	C13.550970,128.989120 13.110506,128.966980 13.110506,128.966980 
z"/>
<path fill="#2A1D9D" opacity="1.000000" stroke="none" 
	d="
M13.057246,129.435760 
	C13.110506,128.966980 13.550970,128.989120 13.771193,128.998260 
	C13.879522,139.436401 13.767630,149.865387 13.409748,160.618073 
	C13.110500,150.596039 13.057243,140.250305 13.057246,129.435760 
z"/>
<path fill="#2A1D9D" opacity="1.000000" stroke="none" 
	d="
M13.441481,236.712448 
	C13.162363,227.611145 13.076298,218.262497 13.047636,208.443817 
	C13.401566,213.522980 13.745959,219.070190 13.974586,224.622147 
	C14.090247,227.430878 13.996645,230.248230 14.002773,233.530151 
	C13.883437,234.820786 13.758986,235.642944 13.441481,236.712448 
z"/>
<path fill="#6254C4" opacity="1.000000" stroke="none" 
	d="
M12.894598,89.944069 
	C12.986981,94.761246 12.871614,99.542908 12.535358,104.668877 
	C12.215558,100.279068 12.116646,95.544960 12.141775,90.349449 
	C12.265818,89.888046 12.686846,89.908562 12.894598,89.944069 
z"/>
<path fill="#4B2DDD" opacity="1.000000" stroke="none" 
	d="
M112.810501,292.717712 
	C111.070511,292.234100 109.176437,291.438019 107.095963,290.339478 
	C108.825172,290.826416 110.740791,291.615845 112.810501,292.717712 
z"/>
<path fill="#4B2DDD" opacity="1.000000" stroke="none" 
	d="
M129.811218,302.830994 
	C128.729111,302.649109 127.520210,302.135712 126.147041,301.325928 
	C127.216660,301.519562 128.450562,302.009552 129.811218,302.830994 
z"/>
<path fill="#4B2DDD" opacity="1.000000" stroke="none" 
	d="
M123.919556,299.681396 
	C123.075706,299.546844 122.178627,299.070221 121.133850,298.313293 
	C121.946220,298.468445 122.906265,298.903870 123.919556,299.681396 
z"/>
<path fill="#4B2DDD" opacity="1.000000" stroke="none" 
	d="
M125.809738,300.783508 
	C125.432007,300.849152 124.883804,300.673431 124.161484,300.261780 
	C124.538010,300.197906 125.088638,300.370026 125.809738,300.783508 
z"/>
<path fill="#4B2DDD" opacity="1.000000" stroke="none" 
	d="
M120.806633,297.781433 
	C120.430695,297.847473 119.885750,297.672119 119.164658,297.263550 
	C119.538223,297.200226 120.087929,297.370117 120.806633,297.781433 
z"/>
<path fill="#4B2DDD" opacity="1.000000" stroke="none" 
	d="
M117.795685,295.783508 
	C117.414406,295.858673 116.868454,295.691864 116.158081,295.284210 
	C116.539444,295.209412 117.085236,295.375488 117.795685,295.783508 
z"/>
<path fill="#4B2DDD" opacity="1.000000" stroke="none" 
	d="
M115.797630,294.782349 
	C115.419044,294.854950 114.875160,294.686188 114.163574,294.280090 
	C114.541359,294.208862 115.086845,294.374939 115.797630,294.782349 
z"/>
<path fill="#4B2DDD" opacity="1.000000" stroke="none" 
	d="
M118.867409,296.800720 
	C118.656029,296.919312 118.395454,296.739319 118.090927,296.257507 
	C118.305824,296.137421 118.562912,296.319611 118.867409,296.800720 
z"/>
<path fill="#4B2DDD" opacity="1.000000" stroke="none" 
	d="
M113.856613,293.794891 
	C113.636200,293.925507 113.375961,293.746918 113.082336,293.254150 
	C113.300438,293.131409 113.556389,293.313293 113.856613,293.794891 
z"/>
<path fill="#2E2494" opacity="1.000000" stroke="none" 
	d="
M141.896881,377.485474 
	C141.881271,368.661560 141.922623,360.302063 141.910782,351.476807 
	C141.908218,342.994202 141.958847,334.977325 142.065552,326.496643 
	C142.415085,327.288391 142.963745,328.543762 142.964951,329.799622 
	C143.002884,369.122375 142.988358,408.445129 142.970032,447.767914 
	C142.969803,448.258728 142.816330,448.749481 142.537354,449.597504 
	C142.211487,425.953094 142.082657,401.951477 141.896881,377.485474 
z"/>
<path fill="#3222A9" opacity="1.000000" stroke="none" 
	d="
M521.067322,236.400665 
	C521.512634,235.732162 522.013062,235.446304 522.771484,235.031937 
	C523.345398,238.453979 523.838135,241.999588 523.938049,245.556213 
	C524.110840,251.706940 524.039917,257.864502 524.112183,264.482239 
	C524.129333,275.295868 524.105591,285.646454 524.104187,296.458008 
	C524.068359,299.962128 524.010254,303.005341 523.924988,306.496948 
	C523.599365,305.028961 523.048401,303.113464 523.041504,301.195953 
	C522.973328,282.236786 523.064453,263.276733 522.909119,244.318573 
	C522.888428,241.802109 521.745605,239.294846 521.067322,236.400665 
z"/>
<path fill="#4E2DC9" opacity="1.000000" stroke="none" 
	d="
M397.253723,306.209747 
	C398.322601,305.945557 399.308990,305.974945 400.666748,306.013733 
	C400.190826,306.675507 399.343506,307.327972 398.159180,308.004700 
	C397.605194,307.520416 397.388245,307.011871 397.253723,306.209747 
z"/>
<path fill="#3222A9" opacity="1.000000" stroke="none" 
	d="
M523.714539,316.214294 
	C523.952637,316.759796 523.969849,317.501343 523.964111,318.613098 
	C523.791992,318.125671 523.642822,317.268005 523.714539,316.214294 
z"/>
<path fill="#4E2DC9" opacity="1.000000" stroke="none" 
	d="
M402.269043,304.934631 
	C402.197357,304.551239 402.354431,304.181824 402.511475,303.812408 
	C402.650543,304.044617 402.789581,304.276825 402.942352,304.729004 
	C402.956055,304.948944 402.497742,304.948608 402.269043,304.934631 
z"/>
<path fill="#3222A9" opacity="1.000000" stroke="none" 
	d="
M523.767883,311.121094 
	C523.898804,311.028290 523.934082,311.500427 523.916748,311.736145 
	C523.546387,311.788452 523.458923,311.535797 523.767883,311.121094 
z"/>
<path fill="#2B1CAE" opacity="1.000000" stroke="none" 
	d="
M14.087860,321.007721 
	C14.021685,318.659210 13.955510,316.310699 13.894802,313.304993 
	C13.868870,312.330933 13.713067,312.096985 13.432860,311.945892 
	C13.323755,299.599304 13.214650,287.252747 13.024062,274.442261 
	C12.942578,273.978394 13.052579,274.159943 13.323612,273.974243 
	C13.777125,273.545074 13.917548,273.279388 14.015915,272.991455 
	C14.343195,274.727875 14.944666,276.462799 14.954398,278.200989 
	C15.032535,292.157318 14.999013,306.114258 14.769506,320.538300 
	C14.539371,321.005585 14.087860,321.007721 14.087860,321.007721 
z"/>
<path fill="#2A1D9D" opacity="1.000000" stroke="none" 
	d="
M14.036011,321.473328 
	C14.087860,321.007721 14.539371,321.005585 14.765010,321.007538 
	C14.996849,338.623383 15.011328,356.237274 14.994232,373.851166 
	C14.992796,375.330658 14.779264,376.809998 14.411451,378.608490 
	C14.073297,367.939728 13.987962,356.951843 13.850674,345.500488 
	C13.860534,337.337677 13.922347,329.638306 14.036011,321.473328 
z"/>
<path fill="#6254C4" opacity="1.000000" stroke="none" 
	d="
M13.991735,272.524170 
	C13.917548,273.279388 13.777125,273.545074 13.421776,273.933899 
	C13.145519,266.016846 13.042133,257.954468 13.025629,249.426910 
	C13.397525,256.660126 13.682539,264.358521 13.991735,272.524170 
z"/>
<path fill="#4E2DC9" opacity="1.000000" stroke="none" 
	d="
M397.973083,247.027542 
	C397.894501,263.445618 397.815887,279.863708 397.519592,296.628357 
	C397.170959,285.303284 397.039978,273.631622 396.857635,261.496155 
	C396.868134,256.650909 396.929993,252.269531 397.275818,247.445251 
	C397.559814,247.002350 397.973083,247.027542 397.973083,247.027542 
z"/>
<path fill="#330FBA" opacity="1.000000" stroke="none" 
	d="
M397.978699,246.556061 
	C397.973083,247.027542 397.559814,247.002350 397.353607,246.983887 
	C397.070831,237.631058 396.994263,228.296707 396.869385,218.497925 
	C396.856659,209.013718 396.892151,199.993958 396.890411,190.510025 
	C396.916443,182.028534 396.979706,174.011215 397.091827,165.534088 
	C397.424683,166.827271 397.952606,168.579742 397.956116,170.333282 
	C398.006897,195.583633 397.987152,220.834106 397.978699,246.556061 
z"/>
<path fill="#6254C4" opacity="1.000000" stroke="none" 
	d="
M13.314495,312.180786 
	C13.713067,312.096985 13.868870,312.330933 13.879245,312.865936 
	C13.858221,313.084106 13.520627,313.010406 13.351570,312.975983 
	C13.187052,312.766266 13.191591,312.590973 13.314495,312.180786 
z"/>
</svg>