<?xml version="1.0" standalone="no"?>
<!DOCTYPE svg PUBLIC "-//W3C//DTD SVG 20010904//EN"
 "http://www.w3.org/TR/2001/REC-SVG-20010904/DTD/svg10.dtd">
<svg version="1.0" xmlns="http://www.w3.org/2000/svg"
 width="593.000000pt" height="523.000000pt" viewBox="0 0 593.000000 523.000000"
 preserveAspectRatio="xMidYMid meet">

<g transform="translate(0.000000,523.000000) scale(0.100000,-0.100000)"
fill="#000000" stroke="none">
<path d="M3685 4679 c-385 -225 -707 -407 -717 -405 -9 2 -330 183 -714 402
-384 218 -703 397 -709 397 -5 0 -161 -88 -345 -195 -184 -108 -501 -292 -705
-411 l-369 -215 2 -588 c5 -1380 15 -2694 21 -2694 3 1 321 185 706 409 l700
408 0 822 c-1 734 1 821 15 816 8 -4 326 -184 707 -400 380 -217 696 -396 700
-397 5 -2 325 180 710 405 386 224 706 407 712 407 8 0 11 -214 11 -743 0
-409 3 -778 6 -820 l7 -76 703 -401 c386 -220 705 -400 709 -400 7 0 -3 2822
-11 3095 l-6 190 -707 403 c-389 221 -711 402 -717 401 -5 0 -324 -185 -709
-410z"/>
<path d="M3705 1389 c-385 -224 -699 -411 -698 -414 1 -4 319 -189 707 -410
l706 -404 -1 447 c-1 246 -5 614 -8 818 l-6 370 -700 -407z"/>
<path d="M1570 965 c0 -448 2 -815 5 -815 4 0 770 447 1376 804 l37 21 -675
385 c-371 212 -690 393 -709 403 l-34 17 0 -815z"/>
</g>
</svg>
